<?xml version="1.0" encoding="utf-8"?>
<!-- Generator: Adobe Illustrator 16.0.0, SVG Export Plug-In . SVG Version: 6.00 Build 0)  -->
<!DOCTYPE svg PUBLIC "-//W3C//DTD SVG 1.1//EN" "http://www.w3.org/Graphics/SVG/1.1/DTD/svg11.dtd">
<svg version="1.1" id="Layer_1" xmlns="http://www.w3.org/2000/svg" xmlns:xlink="http://www.w3.org/1999/xlink" x="0px" y="0px"
	 width="288.321px" height="200px" viewBox="0 0 288.321 200" enable-background="new 0 0 288.321 200" xml:space="preserve">
<g>
	<defs>
		<rect id="SVGID_1_" x="0" width="288.322" height="200.239"/>
	</defs>
	<clipPath id="SVGID_2_">
		<use xlink:href="#SVGID_1_"  overflow="visible"/>
	</clipPath>
	<path clip-path="url(#SVGID_2_)" fill="#FFFF00" d="M24.383,19.211c2.956,1.478,61.328,50.245,61.328,50.245L63.544,28.078
		l37.683,44.333L166.25,9.605l-8.127,40.639L238.661,0l-38.422,70.195c0,0,84.972-47.289,84.234-45.073
		c-0.739,2.217-56.896,74.628-56.896,74.628s64.284,77.584,60.59,76.107c-3.694-1.479-79.062-53.2-79.062-53.2
		s-0.246,70.933-2.708,67.977c-2.464-2.955-40.147-73.889-40.147-73.889l-54.678,83.494l11.822-56.155
		c0,0-29.556,50.984-30.295,48.768c-0.739-2.218,1.478-67.239,1.478-67.239L6.649,185.463l63.544-67.241L9.359,93.101l58.619,5.912
		L0,20.689l42.855,31.034L24.383,19.211z"/>
</g>
</svg>
