<?xml version="1.0" encoding="utf-8"?>
<!-- Generator: Adobe Illustrator 16.0.0, SVG Export Plug-In . SVG Version: 6.00 Build 0)  -->
<!DOCTYPE svg PUBLIC "-//W3C//DTD SVG 1.1//EN" "http://www.w3.org/Graphics/SVG/1.1/DTD/svg11.dtd">
<svg version="1.1" id="Layer_1" xmlns="http://www.w3.org/2000/svg" xmlns:xlink="http://www.w3.org/1999/xlink" x="0px" y="0px"
	 width="99.928px" height="100.663px" viewBox="0 0 99.928 100.663" enable-background="new 0 0 99.928 100.663"
	 xml:space="preserve">
<path fill="none" stroke="#000000" stroke-width="4" stroke-miterlimit="10" d="M29.122,16.951
	c-1.804-2.397-1.471,1.416-1.737,2.412c-0.717,2.681,0.186,1.875-2.332,3.484c-3.961,2.531-4.557,4.268-5.802,8.9
	c-0.717,2.667-1.26,4.854-3.015,6.904c-1.214,1.419-2.796,1.485-2.711,3.73c0.182,4.8,5.982,1.167,7.925,4.78
	c2.411,4.485-0.079,10.855-0.126,15.564c-0.05,5.003,1.475,10.497,5.086,14.071c6.718,6.648,15.749,3.805,23.604,8.129
	c5.1,2.808,7.953,2.537,11.486-2.58c3.22-4.664,4.376-6.272,10.054-4.993c12.719,2.864,14.705-6.785,15.203-17.358
	c0.263-5.567-2.369-11.146,1.744-15.397c3.724-3.85,5.193-8.392-1.438-6.455c-5.723,1.672-8.018-1.91-7.461-7.587
	c0.722-7.346,0.029-12.629-8.377-11.27c-2.34,0.378-4.815,1.326-7.135,0.509c-2.057-0.726-3.148-2.873-5.341-3.399
	c-4.727-1.135-7.616,4.159-12.17,4.114c-3.638-0.036-5.923-3.366-9.323-3.729c-2.275-0.243-6.694,2.627-7.795-0.34"/>
<path fill="none" stroke="#000000" stroke-width="4" stroke-linecap="round" stroke-miterlimit="10" d="M61.674,36.618
	c3.348,0.858,5.787,1.832,9.154,1.017"/>
<path fill="none" stroke="#000000" stroke-width="4" stroke-linecap="round" stroke-miterlimit="10" d="M32.173,36.787
	c2.627,0.63,5.188-0.472,7.799,0.633c1.684,0.712,3.079,2.134,4.8,2.881c0.196,0.447-0.272,0.06-0.562,0.217"/>
<path fill="none" stroke="#000000" stroke-width="4" stroke-linecap="round" stroke-miterlimit="10" d="M48.788,43.569
	c-0.532,2.301-1.726,4.771-2.374,6.951"/>
<path fill="none" stroke="#000000" stroke-width="4" stroke-linecap="round" stroke-miterlimit="10" d="M32.173,65.609
	c-1.697-1.112-0.917-8.533,1.366-9.841c3.361-1.925,4.108,1.976,5.501,4.009c4.013,5.862,4.289-4.866,9.239-1.09
	c1.488,1.136,2.018,5.911,4.748,5.403c2.039-0.379,2.869-5.832,4.879-7.127c5.417-3.49,4.963,5.323,9.227,5.06
	c2.31-0.143,6.27-8.152,8.612-5.061"/>
<circle cx="63.877" cy="44.077" r="1.526"/>
<circle cx="33.877" cy="42.077" r="1.526"/>
</svg>
