<?xml version="1.0" encoding="utf-8"?>
<!-- Generator: Adobe Illustrator 16.0.0, SVG Export Plug-In . SVG Version: 6.00 Build 0)  -->
<!DOCTYPE svg PUBLIC "-//W3C//DTD SVG 1.1//EN" "http://www.w3.org/Graphics/SVG/1.1/DTD/svg11.dtd">
<svg version="1.1" id="Layer_1" xmlns="http://www.w3.org/2000/svg" xmlns:xlink="http://www.w3.org/1999/xlink" x="0px" y="0px"
	 width="99.928px" height="100.663px" viewBox="0 0 99.928 100.663" enable-background="new 0 0 99.928 100.663"
	 xml:space="preserve">
<path fill="none" stroke="#000000" stroke-width="4" stroke-miterlimit="10" d="M36.262,38.663
	c0.486,3.741-8.057,31.628,2.073,27.696c3.642-1.413,0.557-7.98,5.592-4.944c2.765,1.668,1.129,7.276,4.984,7.87
	c1.336,0.206,2.147-3.208,3.61-3.386c1.617-0.197,2.88,0.581,4.324,0.513c3.808-0.181,7.012,2.593,8.772-3.083
	c3.105-10.01-16.133-6.703-16.023-15.333"/>
<path fill="none" stroke="#000000" stroke-width="4" stroke-miterlimit="10" d="M21.595,41.663
	c-1.494-5.529,13.364-0.928,7.343,5.349c-4.104,4.278-10.701-2.326-6.01-6.683"/>
<path fill="none" stroke="#000000" stroke-width="4" stroke-miterlimit="10" d="M52.262,39.329
	c4.247-3.882,14.564,3.584,6.001,6.324C53.533,47.167,47.123,42.191,52.262,39.329"/>
<path fill="none" stroke="#000000" stroke-width="4" stroke-miterlimit="10" d="M41.595,77.996
	c2.265-0.268,47.291-10.771,41.694,1.341c-1.995,4.318-23.479,0.919-25.249-1.901c-1.245,0.985-13.896-0.592-14.839,0.259"/>
<path fill="none" stroke="#000000" stroke-width="4" stroke-miterlimit="10" d="M41.262,28.996
	c1.711,9.543-22.013-3.318-26.617,2.727c-4.693,6.163,8.141,39.715-3.437,38.9C-5.489,69.448,10.126,21.136,23.67,17.3
	C30.872,15.261,42.508,21.676,41.262,28.996"/>
<path fill="none" stroke="#000000" stroke-width="4" stroke-miterlimit="10" d="M41.999,29.897
	c-0.895-17.779,13.231-25.68,27.65-15.431c7.979,5.671,25.057,25.267,20.168,31.856S66.119,34.088,53.638,32.064
	c-4.984-0.808-7.041-1.979-11.679-3.624c-0.072,0.745-1.188,0.841-1.031,1.556"/>
<path fill="none" stroke="#000000" stroke-width="4" stroke-miterlimit="10" d="M16.349,60.887
	c-2.072,9.387,4.724,23.025,13.326,27.357c6.381,3.214,13.953,5.553,20.741,7.727c9.77,3.128,13.461,0.027,18.016-9.091
	c3.039-6.084,2.752-12.76,5.578-18.901c2.396-5.205,5.732-7.054,6.767-13.01c0.733-4.226,0.298-4.435,0.907-8.667"/>
</svg>
